<?xml version="1.0" standalone="no"?>
<!DOCTYPE svg PUBLIC "-//W3C//DTD SVG 20010904//EN"
 "http://www.w3.org/TR/2001/REC-SVG-20010904/DTD/svg10.dtd">
<svg version="1.0" xmlns="http://www.w3.org/2000/svg"
 width="700.000000pt" height="700.000000pt" viewBox="0 0 700.000000 700.000000"
 preserveAspectRatio="xMidYMid meet">
<metadata>
Created by potrace 1.11, written by Peter Selinger 2001-2013
</metadata>
<g transform="translate(0.000000,700.000000) scale(0.100000,-0.100000)"
fill="#000000" stroke="none">
<path d="M1543 6985 c-223 -68 -300 -344 -146 -520 80 -91 228 -131 341 -91
l44 16 348 -350 c192 -192 357 -364 367 -382 15 -28 19 -63 21 -220 2 -104 0
-188 -5 -189 -4 0 -73 -2 -153 -3 -145 -3 -221 -16 -246 -41 -49 -48 -33 -140
27 -165 18 -8 50 -10 91 -5 81 10 2473 9 2529 0 125 -21 221 -105 263 -229 16
-46 17 -155 17 -1289 0 -682 -3 -1264 -7 -1294 -8 -67 7 -107 50 -127 43 -20
82 -14 116 19 35 34 43 77 45 258 2 76 5 140 8 143 4 4 651 7 867 4 31 0 37
-5 54 -42 11 -23 36 -58 57 -79 133 -133 346 -126 472 16 10 11 30 43 44 70
23 43 27 62 28 135 0 73 -4 93 -28 142 -51 105 -158 176 -273 182 -120 6 -255
-72 -301 -176 -9 -20 -23 -38 -32 -40 -13 -3 -874 -2 -891 1 -4 1 -5 190 -1
224 1 4 108 7 239 7 231 0 238 1 265 23 37 30 48 73 30 119 -23 58 -48 63
-307 63 -195 0 -226 2 -227 15 -1 17 -1 151 0 191 l1 26 833 1 c561 0 841 3
859 11 29 11 58 57 58 91 0 36 -28 77 -61 90 -25 11 -196 13 -848 13 -449 -1
-823 1 -831 3 -12 3 -15 23 -13 111 1 60 2 110 2 113 1 3 101 5 224 5 122 -1
234 3 248 7 15 5 37 20 49 33 42 45 21 134 -37 156 -15 5 -130 11 -256 12
l-230 2 0 105 c1 58 2 110 2 115 1 6 63 10 169 10 198 -1 246 6 330 46 54 27
110 78 423 390 198 197 363 359 367 359 4 0 28 -6 53 -14 147 -45 310 30 378
174 38 80 37 192 -1 272 -55 113 -172 183 -304 181 -153 -3 -295 -137 -306
-290 -3 -45 10 -131 23 -156 8 -14 -49 -76 -343 -368 -233 -232 -367 -358
-393 -370 -34 -16 -67 -19 -217 -19 -98 0 -178 3 -179 8 0 4 -2 75 -3 157 -3
161 -13 208 -63 311 -39 81 -149 190 -233 231 -100 47 -142 56 -305 59 -82 1
-153 3 -157 3 -5 1 -8 205 -8 454 l1 452 39 18 c148 68 218 267 149 418 -53
114 -153 180 -279 185 -158 6 -278 -83 -324 -240 -40 -135 35 -297 169 -364
l39 -20 1 -451 c0 -444 0 -451 -20 -452 -25 -1 -197 -1 -207 0 -5 1 -8 104 -8
230 0 126 -4 241 -10 255 -13 34 -52 58 -96 58 -28 0 -44 -8 -67 -31 l-31 -30
0 -241 c-1 -234 -1 -240 -21 -241 -11 0 -63 -1 -115 -1 l-95 -1 -1 819 c0 450
-4 835 -7 854 -8 43 -34 67 -80 75 -55 11 -100 -19 -114 -76 -4 -19 -7 -394
-6 -834 1 -440 0 -809 -2 -820 -4 -19 -11 -20 -107 -18 -57 1 -108 2 -113 2
-7 1 -10 80 -10 227 0 259 -5 284 -63 307 -45 18 -88 8 -119 -28 -25 -29 -25
-22 -23 -347 0 -144 -1 -158 -17 -159 -99 -5 -213 -2 -214 6 0 6 -2 93 -4 195
-3 198 -11 239 -63 330 -14 25 -182 200 -379 397 -194 194 -353 356 -353 361
0 4 7 28 14 53 44 144 -28 305 -168 376 -58 29 -168 38 -233 18z m158 -209
c23 -10 49 -60 49 -96 0 -73 -65 -129 -135 -116 -77 15 -118 116 -72 180 35
49 89 60 158 32z m2746 -227 c65 -40 54 -157 -18 -192 -59 -28 -128 -6 -154
48 -21 45 -19 76 8 116 37 55 103 67 164 28z m2283 -1084 c68 -35 84 -125 32
-178 -79 -79 -194 -31 -196 81 -1 38 4 48 34 76 40 36 86 44 130 21z m-209
-2748 c121 -81 10 -260 -119 -193 -59 30 -75 125 -31 173 45 48 98 55 150 20z"/>
<path d="M1850 4913 c-85 -27 -99 -83 -100 -401 l0 -34 -417 5 c-230 2 -428 7
-440 10 -41 11 -62 27 -92 70 -57 84 -150 130 -261 131 -60 0 -86 -5 -130 -25
-66 -31 -133 -96 -162 -159 -30 -65 -31 -197 -2 -261 43 -92 136 -169 224
-184 76 -13 95 -13 150 2 90 23 162 80 207 165 l23 42 449 0 450 1 3 -108 c2
-65 -1 -112 -7 -117 -6 -5 -113 -8 -238 -9 -253 0 -266 -3 -292 -63 -16 -39
-5 -83 30 -117 l25 -25 240 -1 240 0 1 -37 c1 -48 1 -96 0 -151 l-1 -44 -835
0 c-692 0 -839 -2 -861 -13 -29 -16 -54 -58 -54 -90 0 -34 29 -80 58 -91 18
-8 297 -11 855 -11 570 0 829 -4 834 -11 3 -6 6 -25 6 -44 -1 -18 -2 -60 -2
-93 -1 -83 -3 -84 -246 -85 -245 -1 -257 -4 -283 -56 -23 -46 -17 -89 18 -124
19 -19 35 -20 268 -23 l247 -3 -2 -110 c-1 -61 -4 -113 -7 -116 -3 -3 -90 -7
-193 -8 -203 -3 -244 -10 -330 -60 -26 -16 -190 -171 -380 -362 -184 -184
-348 -343 -365 -353 -25 -15 -36 -17 -52 -8 -12 7 -57 12 -101 12 -66 1 -90
-4 -135 -25 -70 -33 -126 -89 -159 -159 -38 -80 -37 -192 2 -272 89 -182 323
-238 483 -115 107 82 153 232 110 358 l-14 41 349 349 c261 262 360 355 393
370 39 17 68 20 216 20 95 0 174 -1 176 -3 2 -3 6 -72 8 -154 2 -82 9 -171 15
-197 44 -185 212 -354 398 -398 26 -6 116 -13 198 -14 l150 -2 3 -434 c1 -239
0 -444 -3 -455 -2 -12 -19 -27 -35 -34 -46 -19 -115 -91 -146 -151 -39 -77
-40 -190 -3 -270 31 -66 85 -121 154 -157 68 -35 196 -38 267 -5 104 48 184
161 192 270 9 125 -68 260 -175 308 -26 12 -39 25 -40 39 0 12 -2 216 -2 454
-2 378 0 432 13 433 8 1 60 1 115 2 l100 1 2 -231 c2 -127 7 -242 12 -256 21
-54 96 -76 146 -43 45 30 48 48 50 289 2 125 5 230 8 234 4 3 55 6 114 7 l108
1 1 -820 c0 -451 4 -836 8 -856 8 -44 30 -65 77 -74 58 -11 101 18 116 76 4
19 8 401 7 849 -1 448 2 817 6 820 7 4 177 5 215 1 7 -1 11 -77 10 -227 0
-259 5 -284 63 -307 42 -17 85 -8 117 23 19 19 20 35 23 265 2 135 6 245 10
246 4 0 49 1 101 2 108 2 121 -4 122 -61 0 -20 2 -102 4 -182 2 -154 13 -204
61 -288 14 -23 185 -202 379 -397 195 -196 355 -359 355 -364 0 -5 -6 -26 -14
-48 -8 -22 -13 -68 -11 -105 11 -306 411 -419 582 -164 123 183 33 428 -178
487 -51 14 -130 13 -176 -2 -18 -6 -42 -8 -53 -4 -11 4 -175 161 -364 351
-270 270 -348 353 -360 386 -14 35 -16 76 -14 217 l3 173 155 4 c169 3 170 3
217 23 29 12 63 61 63 91 0 23 -32 79 -48 84 -10 3 -510 8 -1112 10 -1006 5
-1403 10 -1552 20 -68 5 -132 44 -183 114 -70 97 -66 13 -66 1390 0 682 3
1263 7 1291 8 65 -8 105 -51 125 -35 17 -40 18 -65 9z m-1232 -452 c56 -56 46
-140 -20 -181 -41 -25 -74 -25 -115 0 -39 24 -54 50 -55 99 -1 67 45 110 119
111 33 0 48 -6 71 -29z m-228 -2731 c33 -24 54 -78 45 -119 -9 -41 -56 -82
-101 -88 -52 -6 -104 28 -122 81 -11 35 -10 44 8 81 11 23 30 47 43 53 37 18
96 14 127 -8z m2313 -1108 c15 -15 29 -44 32 -67 9 -53 -25 -105 -79 -123 -34
-11 -44 -10 -81 8 -45 22 -65 53 -65 101 0 68 43 108 116 109 42 0 55 -5 77
-28z m2737 -217 c37 -36 46 -80 27 -128 -19 -45 -57 -70 -107 -69 -47 1 -84
25 -102 67 -48 114 94 215 182 130z"/>
<path d="M3409 4609 c-56 -12 -81 -56 -105 -184 -7 -42 -13 -44 -37 -13 -38
47 -64 50 -149 17 -93 -36 -112 -59 -105 -129 l5 -48 -83 49 c-124 73 -145 72
-231 -17 -84 -87 -85 -100 -18 -215 24 -42 44 -78 44 -80 0 -3 -18 -3 -40 -1
-58 6 -83 -15 -118 -99 -23 -56 -28 -78 -21 -101 8 -29 54 -78 73 -78 26 0
-12 -14 -96 -35 -101 -26 -137 -52 -139 -103 -1 -32 -1 -119 0 -145 2 -41 52
-73 143 -92 l88 -18 -34 -33 c-45 -43 -48 -69 -16 -148 34 -86 56 -109 109
-108 22 0 45 4 51 7 18 11 11 -7 -36 -87 -70 -122 -67 -141 33 -235 77 -71 94
-72 201 -8 l87 51 -3 -51 c-3 -42 0 -53 20 -72 28 -26 141 -73 165 -68 10 2
22 4 27 4 4 1 23 17 42 38 23 25 35 32 38 22 3 -8 15 -52 28 -98 30 -109 47
-123 152 -125 126 -4 151 16 181 144 10 41 19 77 21 79 2 2 18 -13 37 -32 41
-44 74 -44 171 2 72 35 81 50 74 121 -2 22 -2 40 1 40 2 0 39 -20 81 -45 124
-71 139 -70 231 25 75 77 78 100 26 188 -65 112 -63 103 -20 98 55 -6 80 11
109 73 53 110 50 145 -12 193 l-36 27 39 10 c21 5 65 17 97 25 95 24 114 55
110 186 -2 68 -4 76 -31 100 -19 17 -55 32 -111 44 -45 11 -82 21 -82 23 0 2
14 16 30 31 19 16 32 39 34 57 4 39 -39 143 -72 173 -22 21 -32 23 -79 18 -60
-6 -59 -13 -7 69 38 62 62 116 59 134 -2 9 -4 22 -4 29 -1 7 -31 42 -68 78
-66 66 -67 66 -115 62 -26 -3 -56 -12 -66 -20 -9 -8 -38 -27 -64 -42 l-47 -27
1 45 c1 57 -12 72 -89 108 -90 40 -123 38 -167 -13 l-35 -41 -11 43 c-47 187
-60 202 -164 203 -36 1 -79 -2 -97 -5z m167 -219 c21 -84 28 -129 22 -137 -7
-8 -42 -12 -108 -12 -129 0 -132 4 -95 150 14 57 28 109 30 116 3 8 24 11 61
10 l58 -2 32 -125z m-356 -60 c29 -36 30 -41 13 -46 -10 -4 -41 -17 -69 -29
l-52 -23 -6 30 c-11 58 -8 66 37 87 23 11 43 20 44 20 1 1 16 -17 33 -39z
m627 14 c41 -16 42 -18 37 -53 -9 -61 -9 -61 -52 -41 -21 10 -50 22 -65 25
-24 6 -39 35 -19 35 5 0 15 11 22 25 16 29 21 30 77 9z m372 -193 c-12 -20
-41 -71 -66 -113 -28 -49 -51 -78 -62 -78 -9 0 -46 30 -83 68 -90 90 -88 98
46 178 l101 61 42 -40 43 -41 -21 -35z m-1256 21 c46 -27 77 -52 77 -62 0 -22
-129 -150 -151 -150 -10 0 -29 15 -42 33 -32 44 -107 171 -107 182 0 5 17 26
37 47 l37 38 35 -21 c20 -12 71 -42 114 -67z m520 -18 c120 -2 177 10 177 36
0 15 30 12 89 -11 98 -37 112 -47 107 -76 -7 -36 0 -46 98 -146 79 -80 89 -87
125 -87 42 0 46 -6 92 -134 l17 -49 -26 -22 c-24 -21 -25 -26 -27 -146 -1
-127 8 -170 40 -182 13 -6 12 -15 -9 -71 -42 -110 -49 -120 -91 -122 -33 -1
-48 -11 -132 -97 -85 -86 -95 -100 -90 -125 7 -33 -13 -48 -116 -87 l-64 -24
-25 26 c-25 25 -30 26 -158 26 -128 0 -132 0 -157 -26 l-26 -26 -62 24 c-96
36 -125 53 -119 70 12 31 -8 64 -87 144 -93 93 -108 103 -144 97 -22 -4 -28 2
-55 59 -39 82 -48 125 -28 139 29 22 35 53 34 173 -1 117 -2 123 -28 150 l-26
28 17 45 c47 123 50 127 97 133 39 4 53 14 134 96 81 82 90 96 90 129 0 40 11
48 125 91 l50 19 28 -26 c27 -26 33 -27 150 -28z m-746 -260 l30 -6 -30 -68
-30 -69 -34 26 c-37 29 -39 36 -18 87 16 37 26 41 82 30z m1594 -41 l20 -47
-23 -18 c-52 -42 -53 -42 -85 32 l-31 69 27 4 c68 10 71 9 92 -40z m-1573
-342 c1 -110 -7 -127 -55 -118 -79 15 -209 51 -214 59 -4 6 -6 33 -5 61 l1 51
125 32 c78 20 129 28 136 23 7 -6 12 -47 12 -108z m1627 91 l110 -28 2 -57 2
-57 -52 -14 c-172 -48 -197 -53 -211 -42 -19 15 -17 186 3 209 17 22 16 22
146 -11z m-1647 -400 c30 -75 29 -74 12 -77 -81 -15 -77 -16 -98 35 l-20 49
31 25 c18 14 37 25 42 25 6 1 20 -25 33 -57z m1579 30 c31 -26 32 -28 19 -57
-8 -16 -17 -38 -20 -47 -4 -12 -13 -17 -28 -14 -13 3 -35 5 -49 5 l-27 1 27
70 c14 38 31 70 36 70 6 0 25 -13 42 -28z m-1344 -241 c37 -37 67 -76 67 -85
0 -15 -66 -71 -100 -84 -8 -3 -38 -20 -66 -38 l-51 -33 -41 42 -41 42 61 105
c60 103 73 120 93 120 6 0 40 -31 78 -69z m1143 59 c8 0 14 -6 14 -14 0 -8 3
-16 8 -18 4 -1 30 -42 59 -89 l51 -87 -42 -41 -41 -40 -107 62 c-60 34 -110
70 -114 79 -6 21 124 160 144 153 8 -3 20 -5 28 -5z m-889 -310 c24 0 21 -17
-10 -52 l-32 -37 -45 19 c-42 16 -45 20 -42 51 6 70 7 70 65 43 29 -13 57 -24
64 -24z m652 -3 l8 -46 -49 -21 c-48 -21 -51 -21 -63 -3 -7 10 -20 27 -29 38
-14 19 -12 21 52 51 37 17 68 30 69 29 2 -1 7 -22 12 -48z m-279 18 c9 -17 5
-45 -18 -135 l-28 -115 -59 0 -59 0 -27 105 c-14 58 -28 110 -30 115 -1 6 0
19 4 30 6 19 16 21 106 21 91 0 101 -2 111 -21z"/>
<path d="M3408 3834 c-335 -86 -334 -560 0 -649 179 -47 365 67 407 249 57
245 -165 463 -407 400z m160 -126 c40 -12 92 -60 116 -105 71 -139 -43 -316
-199 -309 -93 5 -161 54 -194 142 -28 75 -15 153 36 210 68 74 142 94 241 62z"/>
</g>
</svg>
