<?xml version="1.0" encoding="UTF-8" standalone="no"?>
<svg
   xmlns:dc="http://purl.org/dc/elements/1.1/"
   xmlns:cc="http://creativecommons.org/ns#"
   xmlns:rdf="http://www.w3.org/1999/02/22-rdf-syntax-ns#"
   xmlns:svg="http://www.w3.org/2000/svg"
   xmlns="http://www.w3.org/2000/svg"
   xmlns:sodipodi="http://sodipodi.sourceforge.net/DTD/sodipodi-0.dtd"
   xmlns:inkscape="http://www.inkscape.org/namespaces/inkscape"
   version="1.1"
   id="Capa_1"
   x="0px"
   y="0px"
   viewBox="0 0 512.002 512.002"
   style="enable-background:new 0 0 512.002 512.002;"
   xml:space="preserve"
   sodipodi:docname="chip.svg"
   inkscape:version="1.0.1 (c497b03c, 2020-09-10)"><metadata
   id="metadata182"><rdf:RDF><cc:Work
       rdf:about=""><dc:format>image/svg+xml</dc:format><dc:type
         rdf:resource="http://purl.org/dc/dcmitype/StillImage" /></cc:Work></rdf:RDF></metadata><defs
   id="defs180"><clipPath
     clipPathUnits="userSpaceOnUse"
     id="clipPath1659"><circle
       style="fill:#ffffff;fill-opacity:1;stroke-width:10;stroke-miterlimit:4;stroke-dasharray:none"
       id="circle1661"
       cx="256"
       cy="256"
       r="256"
       clip-path="none" /></clipPath></defs><sodipodi:namedview
   pagecolor="#ffffff"
   bordercolor="#666666"
   borderopacity="1"
   objecttolerance="10"
   gridtolerance="10"
   guidetolerance="10"
   inkscape:pageopacity="0"
   inkscape:pageshadow="2"
   inkscape:window-width="1680"
   inkscape:window-height="1050"
   id="namedview178"
   showgrid="false"
   inkscape:zoom="1.4355413"
   inkscape:cx="152.51065"
   inkscape:cy="233.88852"
   inkscape:window-x="0"
   inkscape:window-y="0"
   inkscape:window-maximized="0"
   inkscape:current-layer="Capa_1"
   inkscape:document-rotation="0" />

























<g
   id="g1653"
   clip-path="url(#clipPath1659)"><rect
     style="fill:#618678;fill-opacity:1;stroke-width:9.87038;stroke-miterlimit:4;stroke-dasharray:none"
     id="rect1313"
     width="129"
     height="129"
     x="0"
     y="0" /><rect
     style="fill:#749488;fill-opacity:1;stroke-width:9.87038;stroke-miterlimit:4;stroke-dasharray:none"
     id="rect1313-3"
     width="129"
     height="129"
     x="128"
     y="0" /><rect
     style="fill:#859f95;fill-opacity:1;stroke-width:9.87038;stroke-miterlimit:4;stroke-dasharray:none"
     id="rect1313-3-3"
     width="129"
     height="129"
     x="256.306"
     y="0" /><rect
     style="fill:#a7b4b0;fill-opacity:1;stroke-width:9.87038;stroke-miterlimit:4;stroke-dasharray:none"
     id="rect1313-3-3-8"
     width="129"
     height="129"
     x="384.638"
     y="0" /><rect
     style="fill:#4e7364;fill-opacity:1;stroke-width:9.87038;stroke-miterlimit:4;stroke-dasharray:none"
     id="rect1313-2"
     width="129"
     height="129"
     x="0"
     y="128" /><rect
     style="fill:#5a7a6e;fill-opacity:1;stroke-width:9.87038;stroke-miterlimit:4;stroke-dasharray:none"
     id="rect1313-3-2"
     width="129"
     height="129"
     x="128"
     y="128" /><rect
     style="fill:#668076;fill-opacity:1;stroke-width:9.87038;stroke-miterlimit:4;stroke-dasharray:none"
     id="rect1313-3-3-6"
     width="129"
     height="129"
     x="256.306"
     y="128" /><rect
     style="fill:#7d8683;fill-opacity:1;stroke-width:9.87038;stroke-miterlimit:4;stroke-dasharray:none"
     id="rect1313-3-3-8-6"
     width="129"
     height="129"
     x="384.638"
     y="128" /><rect
     style="fill:#44695a;fill-opacity:1;stroke-width:9.87038;stroke-miterlimit:4;stroke-dasharray:none"
     id="rect1313-2-3"
     width="129"
     height="129"
     x="0"
     y="256" /><rect
     style="fill:#4e6e62;fill-opacity:1;stroke-width:9.87038;stroke-miterlimit:4;stroke-dasharray:none"
     id="rect1313-3-2-6"
     width="129"
     height="129"
     x="128"
     y="256" /><rect
     style="fill:#525f5a;fill-opacity:1;stroke-width:9.87038;stroke-miterlimit:4;stroke-dasharray:none"
     id="rect1313-3-3-6-2"
     width="129"
     height="129"
     x="256.306"
     y="256" /><rect
     style="fill:#69706d;fill-opacity:1;stroke-width:9.87038;stroke-miterlimit:4;stroke-dasharray:none"
     id="rect1313-3-3-8-6-6"
     width="129"
     height="129"
     x="384.638"
     y="256" /><rect
     style="fill:#3a5f50;fill-opacity:1;stroke-width:9.87038;stroke-miterlimit:4;stroke-dasharray:none"
     id="rect1313-2-3-3"
     width="129"
     height="129"
     x="0"
     y="384" /><rect
     style="fill:#384440;fill-opacity:1;stroke-width:9.87038;stroke-miterlimit:4;stroke-dasharray:none"
     id="rect1313-3-2-6-8"
     width="129"
     height="129"
     x="128"
     y="384" /><rect
     style="fill:#414c47;fill-opacity:1;stroke-width:9.87038;stroke-miterlimit:4;stroke-dasharray:none"
     id="rect1313-3-3-6-2-3"
     width="129"
     height="129"
     x="256.306"
     y="384" /><rect
     style="fill:#535856;fill-opacity:1;stroke-width:9.87038;stroke-miterlimit:4;stroke-dasharray:none"
     id="rect1313-3-3-8-6-6-8"
     width="129"
     height="129"
     x="384.63797"
     y="384" /></g><g
   id="g1311"
   transform="matrix(0.74999707,0,0,0.74999707,64,63.99925)"
   style="fill:#ffffff"><path
     d="M 504.5,248.501 H 383.742 v -17.064 h 32.581 c 4.142,0 7.5,-3.358 7.5,-7.5 0,-4.142 -3.358,-7.5 -7.5,-7.5 h -32.581 v -17.065 h 22.62 c 8.427,0 16.35,-3.281 22.308,-9.24 l 49.326,-49.326 c 3.214,1.601 6.777,2.453 10.473,2.453 6.286,0 12.195,-2.448 16.64,-6.892 4.445,-4.445 6.893,-10.354 6.893,-16.64 0,-6.286 -2.448,-12.195 -6.893,-16.64 -4.444,-4.445 -10.354,-6.893 -16.64,-6.893 -6.286,0 -12.195,2.448 -16.64,6.892 -4.445,4.445 -6.893,10.354 -6.893,16.64 0,3.696 0.852,7.259 2.453,10.473 l -49.326,49.326 c -3.125,3.125 -7.281,4.847 -11.702,4.847 h -22.62 v -16.548 c 0,-21.816 -17.749,-39.564 -39.564,-39.564 H 327.629 V 61.865 c 9.308,-3.139 16.032,-11.946 16.032,-22.3 0,-12.976 -10.557,-23.532 -23.532,-23.532 -12.975,0 -23.532,10.557 -23.532,23.532 0,10.354 6.724,19.16 16.032,22.3 v 66.394 H 295.565 V 95.678 c 0,-4.142 -3.358,-7.5 -7.5,-7.5 -4.142,0 -7.5,3.358 -7.5,7.5 v 32.581 H 263.5 V 7.501 c 0,-4.142 -3.358,-7.5 -7.5,-7.5 -4.142,0 -7.5,3.358 -7.5,7.5 V 128.259 H 231.436 V 95.678 c 0,-4.142 -3.358,-7.5 -7.5,-7.5 -4.142,0 -7.5,3.358 -7.5,7.5 v 32.581 H 199.372 V 105.64 c 0,-8.427 -3.282,-16.35 -9.241,-22.308 L 140.788,33.989 c 4.359,-8.801 2.898,-19.775 -4.421,-27.095 -9.176,-9.175 -24.105,-9.174 -33.28,0 -9.175,9.175 -9.175,24.104 0,33.28 4.588,4.587 10.614,6.881 16.64,6.881 3.588,0 7.17,-0.833 10.455,-2.46 l 49.343,49.344 c 3.126,3.125 4.847,7.281 4.847,11.701 v 22.619 h -16.548 c -3.345,0 -6.672,0.42 -9.888,1.247 -4.011,1.032 -6.426,5.121 -5.394,9.133 1.032,4.012 5.122,6.427 9.133,5.394 1.995,-0.513 4.063,-0.774 6.148,-0.774 h 176.354 c 13.545,0 24.564,11.02 24.564,24.564 v 176.355 c 0,2.083 -0.26,4.15 -0.772,6.143 -1.031,4.012 1.385,8.1 5.396,9.131 0.626,0.161 1.254,0.238 1.873,0.238 3.341,0 6.388,-2.249 7.258,-5.635 0.826,-3.212 1.245,-6.536 1.245,-9.878 v -16.548 h 66.394 c 3.139,9.308 11.946,16.032 22.3,16.032 12.976,0 23.532,-10.556 23.532,-23.532 0,-12.976 -10.557,-23.532 -23.532,-23.532 -10.354,0 -19.16,6.724 -22.3,16.032 h -66.394 v -17.065 h 32.581 c 4.142,0 7.5,-3.358 7.5,-7.5 0,-4.142 -3.358,-7.5 -7.5,-7.5 H 383.741 V 263.501 H 504.5 c 4.142,0 7.5,-3.358 7.5,-7.5 0,-4.142 -3.358,-7.5 -7.5,-7.5 z M 482.435,113.694 c 1.612,-1.612 3.754,-2.499 6.033,-2.499 2.279,0 4.421,0.887 6.033,2.499 1.612,1.612 2.499,3.754 2.499,6.033 0,2.279 -0.887,4.421 -2.499,6.033 -1.612,1.612 -3.754,2.499 -6.033,2.499 -2.279,0 -4.421,-0.887 -6.033,-2.499 v 0 c -1.612,-1.612 -2.499,-3.754 -2.499,-6.033 0,-2.279 0.887,-4.422 2.499,-6.033 z M 320.129,31.033 c 4.705,0 8.532,3.828 8.532,8.532 0,4.704 -3.828,8.532 -8.532,8.532 -4.704,0 -8.532,-3.828 -8.532,-8.532 0,-4.704 3.827,-8.532 8.532,-8.532 z M 113.692,29.567 c -3.327,-3.327 -3.327,-8.74 0,-12.066 1.664,-1.664 3.848,-2.495 6.034,-2.495 2.185,0 4.37,0.832 6.033,2.495 3.327,3.327 3.327,8.74 0,12.067 v 0 c -3.326,3.325 -8.739,3.326 -12.067,-0.001 z m 358.744,282.031 c 4.705,0 8.532,3.828 8.532,8.532 0,4.705 -3.828,8.532 -8.532,8.532 -4.704,0 -8.532,-3.828 -8.532,-8.532 -10e-4,-4.705 3.827,-8.532 8.532,-8.532 z"
     id="path143"
     style="fill:#ffffff;stroke-width:10;stroke-miterlimit:4;stroke-dasharray:none" /><path
     d="m 381.819,467.407 -49.343,-49.344 c -3.126,-3.125 -4.847,-7.281 -4.847,-11.701 v -22.619 h 16.548 c 3.345,0 6.671,-0.42 9.886,-1.247 4.011,-1.032 6.426,-5.121 5.394,-9.133 -1.032,-4.011 -5.119,-6.426 -9.133,-5.394 -1.994,0.513 -4.062,0.773 -6.147,0.773 H 167.823 c -13.545,0 -24.564,-11.02 -24.564,-24.564 V 167.824 c 0,-2.085 0.26,-4.153 0.773,-6.146 1.033,-4.011 -1.382,-8.1 -5.393,-9.133 -4.012,-1.033 -8.101,1.382 -9.133,5.393 -0.828,3.214 -1.247,6.54 -1.247,9.886 v 16.548 H 61.864 c -3.139,-9.308 -11.946,-16.032 -22.3,-16.032 -12.976,0 -23.532,10.556 -23.532,23.532 0,12.976 10.557,23.532 23.532,23.532 10.354,0 19.16,-6.724 22.3,-16.032 h 66.394 v 17.065 H 95.677 c -4.142,0 -7.5,3.358 -7.5,7.5 0,4.142 3.358,7.5 7.5,7.5 h 32.581 v 17.064 H 7.5 c -4.142,0 -7.5,3.358 -7.5,7.5 0,4.142 3.358,7.5 7.5,7.5 h 120.758 v 17.064 H 95.677 c -4.142,0 -7.5,3.358 -7.5,7.5 0,4.142 3.358,7.5 7.5,7.5 h 32.581 v 17.065 h -22.62 c -8.427,0 -16.35,3.281 -22.308,9.24 l -49.326,49.326 c -3.214,-1.601 -6.777,-2.453 -10.473,-2.453 -6.286,0 -12.195,2.448 -16.64,6.892 C 2.448,380.08 0,385.99 0,392.275 c 0,6.285 2.448,12.195 6.893,16.64 4.444,4.445 10.354,6.892 16.64,6.892 6.286,0 12.195,-2.448 16.64,-6.892 4.445,-4.445 6.893,-10.354 6.893,-16.64 0,-3.696 -0.852,-7.259 -2.453,-10.473 l 49.326,-49.326 c 3.125,-3.125 7.281,-4.847 11.702,-4.847 h 22.62 v 16.548 c 0,21.816 17.749,39.564 39.564,39.564 h 16.548 v 66.394 c -9.308,3.139 -16.032,11.946 -16.032,22.3 0,12.976 10.557,23.532 23.532,23.532 12.975,0 23.532,-10.557 23.532,-23.532 0,-10.354 -6.724,-19.16 -16.032,-22.3 v -66.394 h 17.064 v 32.581 c 0,4.142 3.358,7.5 7.5,7.5 4.142,0 7.5,-3.358 7.5,-7.5 V 383.741 H 248.5 v 120.76 c 0,4.142 3.358,7.5 7.5,7.5 4.142,0 7.5,-3.358 7.5,-7.5 V 383.743 h 17.064 v 32.581 c 0,4.142 3.358,7.5 7.5,7.5 4.142,0 7.5,-3.358 7.5,-7.5 v -32.581 h 17.064 v 22.619 c 0,8.427 3.282,16.35 9.241,22.308 l 49.343,49.343 c -4.359,8.801 -2.898,19.775 4.422,27.095 4.587,4.588 10.614,6.881 16.64,6.881 6.026,0 12.053,-2.293 16.64,-6.881 9.175,-9.175 9.175,-24.104 0,-33.279 -7.319,-7.32 -18.294,-8.781 -27.095,-4.422 z M 39.564,200.404 c -4.705,0 -8.532,-3.828 -8.532,-8.532 0,-4.705 3.828,-8.532 8.532,-8.532 4.704,0 8.532,3.828 8.532,8.532 0.001,4.705 -3.827,8.532 -8.532,8.532 z m -9.999,197.904 c -1.612,1.612 -3.754,2.499 -6.033,2.499 -2.279,0 -4.421,-0.887 -6.033,-2.499 C 15.887,396.696 15,394.554 15,392.275 c 0,-2.279 0.887,-4.421 2.499,-6.033 1.612,-1.612 3.754,-2.499 6.033,-2.499 2.279,0 4.421,0.887 6.033,2.499 v 0 c 1.612,1.612 2.499,3.754 2.499,6.033 0,2.279 -0.887,4.422 -2.499,6.033 z m 162.306,82.661 c -4.705,0 -8.532,-3.828 -8.532,-8.532 0,-4.704 3.828,-8.532 8.532,-8.532 4.704,0 8.532,3.828 8.532,8.532 0,4.704 -3.827,8.532 -8.532,8.532 z m 206.437,13.533 c -3.327,3.327 -8.74,3.326 -12.067,0 -3.327,-3.327 -3.327,-8.74 0,-12.066 1.664,-1.663 3.849,-2.495 6.034,-2.495 2.185,0 4.37,0.832 6.033,2.495 3.326,3.326 3.326,8.739 0,12.066 z"
     id="path145"
     style="fill:#ffffff;stroke-width:100;stroke-miterlimit:4;stroke-dasharray:none" /><g
     id="g147"
     style="fill:#ffffff;stroke-width:100;stroke-miterlimit:4;stroke-dasharray:none" /><g
     id="g149"
     style="fill:#ffffff;stroke-width:100;stroke-miterlimit:4;stroke-dasharray:none" /><g
     id="g151"
     style="fill:#ffffff;stroke-width:100;stroke-miterlimit:4;stroke-dasharray:none" /><g
     id="g153"
     style="fill:#ffffff;stroke-width:100;stroke-miterlimit:4;stroke-dasharray:none" /><g
     id="g155"
     style="fill:#ffffff;stroke-width:100;stroke-miterlimit:4;stroke-dasharray:none" /><g
     id="g157"
     style="fill:#ffffff;stroke-width:100;stroke-miterlimit:4;stroke-dasharray:none" /><g
     id="g159"
     style="fill:#ffffff;stroke-width:100;stroke-miterlimit:4;stroke-dasharray:none" /><g
     id="g161"
     style="fill:#ffffff;stroke-width:100;stroke-miterlimit:4;stroke-dasharray:none" /><g
     id="g163"
     style="fill:#ffffff;stroke-width:100;stroke-miterlimit:4;stroke-dasharray:none" /><g
     id="g165"
     style="fill:#ffffff;stroke-width:100;stroke-miterlimit:4;stroke-dasharray:none" /><g
     id="g167"
     style="fill:#ffffff;stroke-width:100;stroke-miterlimit:4;stroke-dasharray:none" /><g
     id="g169"
     style="fill:#ffffff;stroke-width:100;stroke-miterlimit:4;stroke-dasharray:none" /><g
     id="g171"
     style="fill:#ffffff;stroke-width:100;stroke-miterlimit:4;stroke-dasharray:none" /><g
     id="g173"
     style="fill:#ffffff;stroke-width:100;stroke-miterlimit:4;stroke-dasharray:none" /><g
     id="g175"
     style="fill:#ffffff;stroke-width:100;stroke-miterlimit:4;stroke-dasharray:none" /><g
     id="g1287"
     transform="matrix(0.8344481,0,0,0.8344481,42.262482,42.262182)"
     style="fill:#ffffff"><path
       d="m 265.54355,230.94993 c -13.50854,-5.61699 -29.06661,0.80255 -34.68361,14.31109 -5.61699,13.50853 0.80255,29.06661 14.31109,34.6836 13.50853,5.617 29.06661,-0.80255 34.6836,-14.31108 5.617,-13.50854 -0.80255,-29.06661 -14.31108,-34.68361 z m -17.46216,41.99545 c -9.64846,-4.01193 -14.23414,-15.12555 -10.22221,-24.774 4.01194,-9.64846 15.12555,-14.23414 24.77401,-10.22221 9.64845,4.01194 14.23413,15.12555 10.2222,24.77401 -4.01193,9.64845 -15.12555,14.23413 -24.774,10.2222 z"
       id="path310"
       style="fill:#ffffff;stroke-width:1.6;stroke-miterlimit:4;stroke-dasharray:none"
       sodipodi:nodetypes="ssssssssss" /><path
       d="M 335.14501,275.65302 319.20507,263.771 c 0.71439,-5.44952 0.7156,-10.99037 -0.0222,-16.4814 l 16.01506,-11.83244 c 2.80201,-2.0694 3.83401,-5.76551 2.50162,-8.98758 l -3.52461,-8.54208 c -1.33035,-3.21712 -4.66352,-5.11208 -8.11157,-4.60839 l -19.68255,2.87385 c -3.3656,-4.38358 -7.27373,-8.31136 -11.65783,-11.65715 l 2.95767,-19.67952 c 0.51761,-3.44616 -1.36851,-6.78766 -4.58816,-8.12643 l -8.53208,-3.54773 c -3.21615,-1.33731 -6.91543,-0.31828 -8.99386,2.47888 L 263.686,191.59745 c -5.45098,-0.71089 -10.99037,-0.7156 -16.48286,0.0257 L 235.3707,175.60809 c -2.0659,-2.80055 -5.76551,-3.83401 -8.98758,-2.50162 l -8.54208,3.52462 c -3.22062,1.32888 -5.11703,4.66556 -4.60839,8.11156 l 2.87385,19.68255 c -4.38708,3.36415 -8.31486,7.27228 -11.66415,11.65492 l -19.67602,-2.95622 c -3.44616,-0.5176 -6.78766,1.36852 -8.12643,4.58817 l -3.54772,8.53208 c -1.33731,3.21615 -0.31828,6.91542 2.47887,8.99386 l 15.93644,11.88056 c -0.71089,5.45098 -0.7156,10.99037 0.0257,16.48286 l -16.01506,11.83244 c -2.802,2.0694 -3.83401,5.7655 -2.50162,8.98758 l 3.52666,8.54703 c 1.33239,3.22208 4.66556,5.11703 8.11302,4.60489 l 19.68255,-2.87384 c 3.3621,4.38211 7.27373,8.31135 11.65783,11.65714 l -2.95767,19.67952 c -0.52256,3.44821 1.36356,6.78971 4.58321,8.12847 l 8.53208,3.54773 c 3.21615,1.33731 6.91542,0.31828 8.99386,-2.47888 l 11.88201,-15.93994 c 5.44953,0.7144 10.99037,0.7156 16.48141,-0.0222 l 11.83448,16.02001 c 2.06881,2.79355 5.76347,3.82905 8.98759,2.50162 l 8.54207,-3.52462 c 3.22062,-1.32888 5.11703,-4.66556 4.60839,-8.11156 l -2.87384,-19.68255 c 4.38357,-3.3656 8.31135,-7.27373 11.65714,-11.65783 l 19.67952,2.95767 c 3.44762,0.51411 6.78912,-1.37201 8.12788,-4.59166 l 3.54773,-8.53208 c 1.33877,-3.21965 0.31974,-6.91893 -2.47742,-8.99736 z m -8.06955,14.61908 -19.68301,-2.95913 c -2.69039,-0.40037 -5.41176,0.70512 -7.10609,2.89441 -2.95961,3.83046 -6.42504,7.27819 -10.28441,10.24196 -2.19849,1.68412 -3.31867,4.40769 -2.91816,7.10682 l 2.90389,19.69915 -8.54207,3.52461 -11.83244,-16.01506 c -1.6229,-2.19766 -4.33424,-3.33738 -7.07364,-2.97823 -4.83485,0.62073 -9.72175,0.61642 -14.52632,-0.0104 -2.74167,-0.35602 -5.45427,0.77775 -7.076,2.96028 l -11.87266,15.97667 -8.53208,-3.54773 2.95767,-19.67951 c 0.40183,-2.69389 -0.70716,-5.41671 -2.89441,-7.10609 -3.8325,-2.96456 -7.28169,-6.4265 -10.2475,-10.29082 -0.83549,-1.09036 -1.92589,-1.91319 -3.14026,-2.41813 -1.23887,-0.51514 -2.60402,-0.69694 -3.96307,-0.49857 l -19.69914,2.90389 -3.52462,-8.54208 16.01506,-11.83244 c 2.19475,-1.61589 3.33593,-4.33073 2.9832,-7.07568 -0.62219,-4.83135 -0.61788,-9.71825 0.009,-14.52282 0.36243,-2.74721 -0.77483,-5.46127 -2.95882,-7.07951 l -15.97812,-11.86915 3.54773,-8.53208 19.67601,2.95621 c 2.69098,0.40883 5.41875,-0.7022 7.10958,-2.89295 2.96457,-3.8325 6.4265,-7.28169 10.29083,-10.2475 2.19499,-1.68557 3.31371,-4.40565 2.9167,-7.10333 l -2.90389,-19.69914 8.54208,-3.52462 11.83244,16.01506 c 1.61939,2.19621 4.32927,3.33943 7.07568,2.98319 4.83134,-0.62218 9.71825,-0.61788 14.52281,0.009 2.74372,0.36098 5.45282,-0.77424 7.07951,-2.95882 l 11.86916,-15.97812 8.53208,3.54773 -2.95913,19.68301 c -0.40037,2.69039 0.70512,5.41175 2.89441,7.10608 3.83046,2.95961 7.27819,6.42505 10.244,10.28937 1.68412,2.19849 4.40915,3.31517 7.10333,2.9167 l 19.69914,-2.90389 3.52462,8.54208 -16.01506,11.83244 c -2.19766,1.62289 -3.33738,4.33423 -2.97824,7.07363 0.62073,4.83485 0.61643,9.72176 -0.0104,14.52632 -0.35602,2.74167 0.77774,5.45427 2.96028,7.07601 l 15.97812,11.86916 z"
       id="path314"
       sodipodi:nodetypes="ccccccccccsscccccsccccssccccccccccsscccccsccccsscccccccccccccccccsccccccccccccccccccccccccccccccccc"
       style="fill:#ffffff;stroke-width:1.6;stroke-miterlimit:4;stroke-dasharray:none" /><path
       d="m 255.12711,225.83462 c 16.23737,-0.0856 29.51566,13.05333 29.6013,29.29071 0.0856,16.23736 -13.05334,29.51565 -29.29071,29.60129 -16.23736,0.0856 -29.51566,-13.05334 -29.60129,-29.2907 -0.0856,-16.23738 13.05334,-29.51567 29.2907,-29.6013 z m 0.26623,50.47885 c 11.59751,-0.0612 20.98309,-9.54627 20.92193,-21.14377 -0.0612,-11.59753 -9.54627,-20.9831 -21.14379,-20.92195 -11.59751,0.0612 -20.98309,9.54627 -20.92192,21.14379 0.0612,11.59752 9.54626,20.9831 21.14378,20.92193 z"
       id="path310-3"
       style="fill:#ffffff;stroke-width:1.77584;stroke-miterlimit:4;stroke-dasharray:none"
       sodipodi:nodetypes="ssssssssss" /><path
       d="m 164.83412,242.4645 21.37043,-5.49727 c 1.55903,-5.89758 3.88896,-11.58891 6.95692,-16.91816 l -11.47031,-18.89064 c -2.0072,-3.30428 -1.51208,-7.53462 1.21198,-10.28333 l 7.21388,-7.29037 c 2.71988,-2.74449 6.94052,-3.28838 10.26998,-1.32038 l 19.00617,11.23258 c 5.30097,-3.08622 10.9674,-5.47606 16.87781,-7.0679 l 5.24196,-21.45652 c 0.91826,-3.75721 4.26129,-6.39561 8.13134,-6.41602 l 10.25563,-0.0541 c 3.86583,-0.0204 7.2365,2.5826 8.19435,6.32992 l 5.49724,21.36623 c 5.8976,1.56323 11.5889,3.88895 16.91818,6.96113 l 18.89063,-11.4703 c 3.30008,-2.00717 7.53463,-1.51208 10.28332,1.21198 l 7.29039,7.21388 c 2.74869,2.71985 3.2926,6.94471 1.32038,10.26998 l -11.23259,19.00616 c 3.09044,5.30096 5.48027,10.96738 7.07632,16.87777 l 21.45232,5.24198 c 3.75719,0.91828 6.3956,4.2613 6.41602,8.13135 l 0.0541,10.25562 c 0.0204,3.86584 -2.5826,7.2365 -6.32991,8.19436 l -21.36622,5.49725 c -1.56324,5.8976 -3.88897,11.5889 -6.96114,16.91817 l 11.47031,18.89063 c 2.00719,3.30429 1.51209,7.53462 -1.21198,10.28334 l -7.21806,7.2946 c -2.72407,2.74871 -6.9447,3.2926 -10.27,1.31617 L 291.1674,317.06003 c -5.29677,3.0862 -10.9674,5.47605 -16.87781,7.0679 l -5.24196,21.45652 c -0.91405,3.7614 -4.25707,6.39979 -8.12712,6.4202 l -10.25563,0.0541 c -3.86583,0.0204 -7.23649,-2.58259 -8.19434,-6.32992 l -5.49727,-21.37042 c -5.89759,-1.55903 -11.5889,-3.88897 -16.91816,-6.95692 l -18.89481,11.47453 c -3.30013,1.99876 -7.53045,1.50785 -10.28334,-1.21198 l -7.29037,-7.21388 c -2.7487,-2.71985 -3.29261,-6.94471 -1.32038,-10.26998 L 193.49876,291.174 c -3.08623,-5.30097 -5.47606,-10.96739 -7.0679,-16.87781 l -21.45653,-5.24196 c -3.75722,-0.92247 -6.39563,-4.2655 -6.41604,-8.13554 l -0.0541,-10.25562 c -0.0204,-3.87006 2.58257,-7.24072 6.32989,-8.19857 z m 2.13734,18.40981 21.46072,5.24193 c 2.93165,0.72071 5.26157,3.00107 6.08067,5.96246 1.42813,5.17932 3.53681,10.17836 6.2537,14.84608 1.54944,2.65466 1.55407,5.92324 0.007,8.52692 l -11.27042,19.01058 7.29037,7.21387 18.89064,-11.47031 c 2.59143,-1.57434 5.85566,-1.60418 8.51811,-0.0828 4.70455,2.67168 9.72553,4.72329 14.92384,6.10095 2.96566,0.78784 5.27467,3.09355 6.02205,6.01745 l 5.4722,21.40422 10.25563,-0.0541 5.24195,-21.45652 c 0.72069,-2.93585 3.00525,-5.26579 5.96247,-6.08066 5.18349,-1.43237 10.18256,-3.53684 14.85446,-6.25796 1.31685,-0.76836 2.78294,-1.1547 4.24263,-1.16239 1.48913,-0.008 2.96771,0.37978 4.28009,1.1553 l 19.01057,11.27042 7.21388,-7.29038 -11.47031,-18.89064 c -1.5743,-2.58301 -1.60416,-5.85145 -0.087,-8.52229 2.67171,-4.70034 4.72333,-9.72132 6.10087,-14.91968 0.78358,-2.97405 3.09351,-5.28309 6.01744,-6.02627 l 21.40423,-5.46798 -0.0541,-10.25563 -21.4523,-5.24199 c -2.93582,-0.71226 -5.26998,-3.00101 -6.08487,-5.96243 -1.43238,-5.18349 -3.53684,-10.18256 -6.25797,-14.85447 -1.54523,-2.65468 -1.54983,-5.91905 -0.007,-8.52271 l 11.27043,-19.01057 -7.29038,-7.21389 -18.89064,11.47031 c -2.58722,1.57434 -5.85143,1.60837 -8.5223,0.087 -4.70033,-2.67169 -9.72131,-4.72332 -14.91966,-6.10087 -2.96985,-0.7836 -5.27466,-3.08934 -6.02627,-6.01743 l -5.468,-21.40424 -10.25562,0.0541 -5.24193,21.46072 c -0.72071,2.93166 -3.00106,5.26156 -5.96246,6.08066 -5.17932,1.42814 -10.17836,3.53683 -14.85027,6.25794 -2.65466,1.54945 -5.92325,1.54986 -8.52271,0.007 l -19.01057,-11.27041 -7.21388,7.29037 11.47031,18.89063 c 1.57434,2.59144 1.60418,5.85567 0.0828,8.51811 -2.67168,4.70455 -4.7233,9.72553 -6.10095,14.92384 -0.78783,2.96566 -3.09354,5.27468 -6.01746,6.02207 l -21.40423,5.46799 z"
       id="path314-1"
       sodipodi:nodetypes="ccccccccccsscccccsccccssccccccccccsscccccsccccsscccccccccccccccccsccccccccccccccccccccccccccccccccc"
       style="fill:#ffffff;stroke-width:1.77584;stroke-miterlimit:4;stroke-dasharray:none" /></g></g></svg>
